<?xml version="1.0" encoding="utf-8"?>
<!-- Generator: Adobe Illustrator 24.0.3, SVG Export Plug-In . SVG Version: 6.00 Build 0)  -->
<svg version="1.1" id="Layer_1" xmlns="http://www.w3.org/2000/svg" xmlns:xlink="http://www.w3.org/1999/xlink" x="0px" y="0px"
	 viewBox="0 0 149.2 172.2" style="enable-background:new 0 0 149.2 172.2;" xml:space="preserve">
<style type="text/css">
	.st0{fill:#1D1D1B;}
	.st1{fill:none;stroke:#FFFFFF;stroke-width:3;stroke-linecap:round;stroke-linejoin:round;stroke-miterlimit:10;}
</style>
<g>
	<path class="st0" d="M139.7,86.2c0,76-50.7,76-65,76c-15.7,0-65.2,0-65.2-76c0-73.5,50.9-76.1,65.2-76.1
		C89.4,10.1,139.7,12.5,139.7,86.2z"/>
	<path class="st1" d="M74.6,98.5V139 M74.6,139l-5.6-5.6 M74.5,98.2H69 M74.6,90.1l-1.3-1.3 M60.9,112.3H44.2 M60.9,112.3L44.2,129
		 M104.7,100.9l-15.8,15.8 M104.9,132.6l-15.7-15.7"/>
	<path class="st1" d="M96.5,75.3l-3.9-3.9 M44.5,58.8h60.2 M96.8,42l-3.9,3.9 M53.3,42l3.9,3.9 M52.9,75.3l3.9-3.9 M97.1,75.3h2.6
		 M74.7,34.7V45"/>
</g>
</svg>
